<svg id="Layer_1" data-name="Layer 1" xmlns="http://www.w3.org/2000/svg" viewBox="0 0 300 54"><defs><style>.cls-1{fill:#fff;}.cls-2{fill:#e74c3c;}</style></defs><title>Artboard 1</title><path class="cls-1" d="M4.74,9.23H21.3a22.88,22.88,0,0,1,9.91,2,15.56,15.56,0,0,1,6.67,5.83A16.52,16.52,0,0,1,40.26,26,16.5,16.5,0,0,1,37.88,35a15.5,15.5,0,0,1-6.67,5.83,22.88,22.88,0,0,1-9.91,2H4.74ZM20.82,34a8.1,8.1,0,0,0,5.83-2.09A7.76,7.76,0,0,0,28.83,26a7.78,7.78,0,0,0-2.18-5.88,8.1,8.1,0,0,0-5.83-2.09H16.06V34Z"/><path class="cls-2" d="M44.74,12.9a5,5,0,0,1-1.8-4,5,5,0,0,1,1.8-4,7,7,0,0,1,4.73-1.56,7.15,7.15,0,0,1,4.75,1.49A4.79,4.79,0,0,1,56,8.75a5.27,5.27,0,0,1-1.78,4.11,6.79,6.79,0,0,1-4.75,1.6A6.92,6.92,0,0,1,44.74,12.9Z"/><rect class="cls-1" x="44.05" y="16.58" width="10.85" height="26.26"/><path class="cls-1" d="M88.74,7.22V42.83H78.42V40.67q-2.36,2.64-7.21,2.64a12.67,12.67,0,0,1-6.36-1.65,12,12,0,0,1-4.6-4.78,14.74,14.74,0,0,1-1.71-7.2,14.63,14.63,0,0,1,1.71-7.18,12,12,0,0,1,4.6-4.75,12.67,12.67,0,0,1,6.36-1.65c2.92,0,5.14.75,6.68,2.25V7.22ZM76.88,33.5a5.62,5.62,0,0,0,1.2-3.82,5.51,5.51,0,0,0-1.2-3.79,4.17,4.17,0,0,0-6.14,0,5.46,5.46,0,0,0-1.2,3.79,5.57,5.57,0,0,0,1.2,3.82,4.12,4.12,0,0,0,6.14,0Z"/><path class="cls-2" d="M108.63,12.9a5,5,0,0,1-1.8-4,5,5,0,0,1,1.8-4,7,7,0,0,1,4.73-1.56,7.18,7.18,0,0,1,4.75,1.49,4.81,4.81,0,0,1,1.77,3.84,5.3,5.3,0,0,1-1.77,4.11,6.83,6.83,0,0,1-4.75,1.6A6.92,6.92,0,0,1,108.63,12.9Z"/><rect class="cls-1" x="107.93" y="16.58" width="10.85" height="26.26"/><path class="cls-1" d="M142.93,41.92a13.55,13.55,0,0,1-6.68,1.39q-5.52,0-8.49-2.66t-3-8V25.94h-3.6V18h3.6V10.67h10.85V18H141v7.92h-5.38v6.62a2.65,2.65,0,0,0,.62,1.87,2.13,2.13,0,0,0,1.64.68,4.16,4.16,0,0,0,2.44-.73Z"/><path class="cls-1" d="M171.72,17.78v5.76h14v8.54h-14V42.83H160.4V9.23h27.31v8.55Z"/><path class="cls-1" d="M191,7.22h10.85V42.83H191Z"/><path class="cls-1" d="M212.64,41.56a13.42,13.42,0,0,1-5.44-4.85,12.76,12.76,0,0,1-2-7,12.76,12.76,0,0,1,2-7,13.21,13.21,0,0,1,5.44-4.82,18.79,18.79,0,0,1,15.75,0,13.35,13.35,0,0,1,5.42,18.88,13.24,13.24,0,0,1-5.42,4.85,18.59,18.59,0,0,1-15.75,0Zm10.92-8.06a5.62,5.62,0,0,0,1.2-3.82,5.51,5.51,0,0,0-1.2-3.79,4.17,4.17,0,0,0-6.14,0,5.51,5.51,0,0,0-1.2,3.79,5.62,5.62,0,0,0,1.2,3.82,4.12,4.12,0,0,0,6.14,0Z"/><path class="cls-1" d="M263,17.75a11.93,11.93,0,0,1,4.61,4.78,14.74,14.74,0,0,1,1.71,7.2,14.63,14.63,0,0,1-1.71,7.18A12,12,0,0,1,263,41.66a12.62,12.62,0,0,1-6.36,1.65q-4.37,0-6.67-2.25V52.14H239.16V16.58h10.32v2.16q2.36-2.64,7.2-2.64A12.62,12.62,0,0,1,263,17.75Zm-5.88,15.77a5.49,5.49,0,0,0,1.2-3.79,5.62,5.62,0,0,0-1.2-3.82,4.12,4.12,0,0,0-6.14,0,5.62,5.62,0,0,0-1.2,3.82,5.49,5.49,0,0,0,1.2,3.79,4.17,4.17,0,0,0,6.14,0Z"/><path class="cls-1" d="M279.39,26.2a20,20,0,0,1,2.88-3.29A17.47,17.47,0,0,0,284,21a2.46,2.46,0,0,0,.55-1.54,1.87,1.87,0,0,0-.91-1.65,4.12,4.12,0,0,0-2.3-.6,5.12,5.12,0,0,0-2.88.89,6.23,6.23,0,0,0-2.12,2.37l-8.54-4.27a13.73,13.73,0,0,1,5.69-5.71,19.06,19.06,0,0,1,9.28-2.07,17,17,0,0,1,9.51,2.41A7.64,7.64,0,0,1,296,17.63a8.42,8.42,0,0,1-.7,3.53,9.51,9.51,0,0,1-1.65,2.55A28.92,28.92,0,0,1,291.15,26a19.93,19.93,0,0,0-2.21,2.17,2.77,2.77,0,0,0-.67,1.82h-9.89A6.68,6.68,0,0,1,279.39,26.2Z"/><path class="cls-2" d="M278.76,41.63A5.42,5.42,0,0,1,277,37.55a5.23,5.23,0,0,1,1.77-4,7.26,7.26,0,0,1,9.12,0,5.21,5.21,0,0,1,1.78,4,5.39,5.39,0,0,1-1.78,4.08,7,7,0,0,1-9.12,0Z"/></svg>