<?xml version="1.0" standalone="no"?>
<!DOCTYPE svg PUBLIC "-//W3C//DTD SVG 20010904//EN"
 "http://www.w3.org/TR/2001/REC-SVG-20010904/DTD/svg10.dtd">
<svg version="1.0" xmlns="http://www.w3.org/2000/svg"
 width="300.000000pt" height="300.000000pt" viewBox="0 0 300.000000 300.000000"
 preserveAspectRatio="xMidYMid meet">
<metadata>
Created by potrace 1.14, written by Peter Selinger 2001-2017
</metadata>
<g transform="translate(0.000000,300.000000) scale(0.100000,-0.100000)"
fill="#000000" stroke="none">
<path d="M1297 2930 c-538 -85 -977 -447 -1156 -953 -58 -165 -75 -271 -75
-477 0 -152 4 -203 22 -287 121 -561 538 -989 1095 -1121 101 -24 131 -26 312
-27 156 0 218 4 284 18 461 99 822 379 1021 792 53 110 89 217 117 346 26 119
26 439 0 558 -28 129 -64 236 -117 346 -198 409 -556 689 -1010 790 -88 19
-403 29 -493 15z m1172 -1106 c74 -22 130 -76 138 -131 10 -78 -3 -110 -78
-185 -38 -38 -69 -74 -69 -79 0 -5 -43 -9 -95 -9 -102 0 -105 2 -85 54 5 13
32 50 60 80 55 62 58 71 33 98 -28 31 -80 21 -129 -24 -22 -19 -22 -19 -104
22 l-82 41 25 32 c77 101 242 144 386 101z m-1604 -17 c107 -34 190 -115 217
-211 18 -65 13 -164 -11 -228 -31 -80 -109 -150 -198 -178 -56 -17 -93 -20
-269 -20 l-204 0 0 331 0 331 208 -5 c152 -3 220 -9 257 -20z m1175 -62 l0
-85 -155 0 -155 0 0 -55 0 -55 135 0 135 0 0 -85 0 -85 -135 0 -135 0 0 -105
0 -105 -110 0 -110 0 0 330 0 330 265 0 265 0 0 -85z m-640 -365 l0 -210 -110
0 -110 0 0 210 0 210 110 0 110 0 0 -210z"/>
<path d="M620 1495 l0 -155 68 0 c118 0 182 54 182 154 0 107 -56 156 -177
156 l-73 0 0 -155z"/>
</g>
</svg>
